<?xml version="1.0" standalone="no"?>
<!DOCTYPE svg PUBLIC "-//W3C//DTD SVG 20010904//EN"
 "http://www.w3.org/TR/2001/REC-SVG-20010904/DTD/svg10.dtd">
<svg version="1.0" xmlns="http://www.w3.org/2000/svg"
 width="500.000000pt" height="500.000000pt" viewBox="0 0 500.000000 500.000000"
 preserveAspectRatio="xMidYMid meet">

<g transform="translate(0.000000,500.000000) scale(0.100000,-0.100000)"
fill="#000000" stroke="none">
<path d="M0 2500 l0 -2500 2500 0 2500 0 0 2500 0 2500 -2500 0 -2500 0 0
-2500z m2652 1426 c9 -8 20 -11 29 -6 22 12 79 0 89 -19 8 -15 -25 -286 -36
-300 -2 -2 -14 -1 -27 3 l-23 5 19 127 c16 105 17 128 5 135 -18 12 -24 -7
-42 -140 -9 -63 -18 -116 -19 -117 -2 -2 -13 -1 -25 3 -26 6 -26 9 -7 133 18
119 19 140 1 140 -14 0 -25 -48 -41 -175 -10 -77 -14 -85 -41 -85 -13 0 -24 4
-24 9 0 37 43 278 52 288 14 17 73 17 90 -1z m-293 -10 c12 -15 61 -276 54
-288 -2 -5 -15 -8 -28 -8 -21 0 -24 6 -30 60 -7 60 -12 69 -32 49 -7 -7 -7
-27 -1 -61 10 -56 11 -53 -19 -62 -26 -8 -24 -15 -53 158 -21 127 -17 151 22
159 47 9 76 7 87 -7z m-299 -86 c11 -11 20 -26 20 -33 0 -19 -30 -54 -36 -42
-13 30 -22 37 -36 29 -12 -8 -7 -26 31 -106 36 -76 49 -96 60 -89 12 8 12 14
1 40 -7 17 -16 28 -21 25 -5 -3 -14 6 -20 20 -10 20 -8 29 11 56 12 17 25 28
29 23 4 -4 24 -46 46 -91 39 -82 39 -84 20 -98 -35 -26 -92 -39 -109 -25 -19
16 -116 217 -116 241 0 20 25 45 60 59 35 14 38 13 60 -9z m983 -17 c30 -15
31 -17 17 -44 -10 -18 -13 -18 -40 -4 -29 15 -30 14 -45 -14 -20 -40 -20 -41
20 -41 33 0 34 -1 23 -25 -9 -20 -18 -25 -50 -25 -34 0 -40 -4 -56 -37 -11
-24 -13 -37 -6 -40 33 -11 48 -31 39 -52 l-10 -21 -52 25 c-29 13 -53 29 -53
35 0 15 109 232 128 253 16 18 34 16 85 -10z m-673 -334 c-170 -36 -260 -90
-310 -189 -30 -58 -27 -70 18 -70 l37 -1 -37 -13 c-21 -8 -49 -21 -63 -30 -13
-9 -27 -16 -30 -16 -9 0 -6 28 11 100 20 89 67 145 155 185 69 31 177 53 259
53 53 1 51 0 -40 -19z m-352 -341 c-57 -75 -72 -118 -72 -213 -1 -49 3 -109 7
-132 7 -36 6 -43 -7 -43 -26 0 -38 47 -38 145 0 114 25 187 82 239 50 45 60
46 28 4z m573 -2 c-14 -15 -25 -42 -28 -68 -4 -38 -1 -49 29 -88 53 -70 55
-78 12 -41 -51 44 -63 67 -64 118 0 30 7 50 26 72 14 17 31 31 37 31 6 0 0
-11 -12 -24z m-401 -51 c12 -19 19 -38 17 -42 -3 -5 -28 -17 -55 -27 -45 -18
-52 -24 -60 -59 -9 -32 -8 -37 4 -33 42 18 46 15 14 -13 -37 -33 -36 -38 5
-19 33 15 40 6 22 -29 -20 -38 -65 -79 -101 -93 -44 -16 -58 4 -64 93 -9 138
35 232 123 262 48 16 65 9 95 -40z m635 1 c13 -30 34 -60 45 -66 36 -20 14
-23 -36 -6 -64 21 -64 21 -15 -20 44 -38 49 -54 9 -34 -21 11 -20 10 6 -18 27
-30 28 -30 8 -41 -45 -24 -76 -13 -156 55 -43 36 -80 72 -83 80 -9 24 14 63
43 74 23 9 104 25 142 29 7 0 24 -24 37 -53z m-475 -344 c-1 -13 -50 -63 -58
-59 -4 3 -8 -5 -9 -16 0 -12 -10 -47 -21 -77 l-21 -55 -10 30 c-6 17 -19 43
-28 59 l-16 29 64 58 c51 45 68 55 81 48 10 -5 18 -13 18 -17z m-493 -20 c8
-5 1 -17 -25 -37 -20 -17 -43 -33 -52 -37 -10 -4 -6 -7 13 -7 36 -1 34 -16 -4
-31 -105 -44 -132 -249 -44 -337 32 -32 33 -33 9 -33 -31 0 -32 -32 -3 -80 19
-30 19 -33 3 -20 -35 28 -53 55 -76 110 -19 46 -22 75 -23 175 0 112 2 124 29
183 35 76 84 122 129 122 18 0 37 -4 44 -8z m1185 -12 c-31 -29 -49 -58 -67
-109 -15 -43 -15 -44 3 -28 18 17 19 15 5 -55 -9 -45 -13 -115 -11 -180 2 -67
-1 -110 -7 -112 -5 -3 0 -8 13 -12 16 -5 20 -10 12 -19 -11 -14 20 -48 60 -64
23 -9 22 -10 -14 -10 -34 -1 -45 5 -81 43 -51 52 -74 114 -82 218 -14 177 64
348 160 348 l31 0 -22 -20z m-632 -25 c-13 -14 -20 -25 -15 -25 4 0 -10 -13
-33 -30 -22 -16 -46 -37 -52 -47 -11 -17 -11 -16 -5 2 10 33 46 80 79 103 41
29 55 28 26 -3z m-77 -127 c-21 -42 -30 -182 -13 -232 6 -20 24 -51 38 -69
l27 -32 -25 16 c-14 9 -37 40 -52 69 -44 83 -35 203 19 262 24 26 26 22 6 -14z
m157 -23 c0 -44 -4 -56 -20 -65 -15 -8 -20 -21 -20 -48 0 -30 -7 -45 -35 -72
-44 -43 -60 -31 -17 13 18 18 32 40 32 50 0 22 21 67 32 67 4 0 8 25 8 55 0
30 5 55 10 55 6 0 10 -25 10 -55z m-282 -405 c37 -38 64 -70 61 -70 -11 0
-124 78 -143 99 -17 19 -15 41 5 41 5 0 40 -31 77 -70z m-155 -121 c52 -43 47
-92 -9 -81 -18 3 -23 9 -19 22 10 32 -17 35 -41 4 -26 -32 -18 -44 28 -44 15
0 29 -4 32 -9 9 -14 -112 -171 -132 -171 -10 0 -36 15 -58 34 -38 34 -39 35
-23 63 11 21 21 27 40 25 32 -5 34 -9 19 -27 -10 -13 -11 -18 -1 -28 10 -9 19
-5 41 22 33 39 31 51 -8 51 -54 0 -55 12 -6 81 48 67 70 89 89 89 6 0 27 -14
48 -31z m1050 -78 c43 -58 77 -113 77 -126 0 -27 -62 -78 -88 -73 -23 4 -172
205 -172 233 0 24 65 77 90 73 8 -2 50 -50 93 -107z m-855 -23 c46 -17 52 -22
46 -41 -9 -30 -9 -30 -33 -18 -23 13 -22 15 -81 -144 -18 -49 -35 -92 -36 -93
-6 -8 -44 10 -44 21 0 7 20 64 44 127 l44 115 -23 10 c-18 8 -21 14 -14 34 7
17 14 21 27 16 9 -4 41 -16 70 -27z m645 -118 c32 -77 56 -144 52 -150 -3 -5
-14 -10 -24 -10 -13 0 -32 34 -75 135 -58 134 -63 165 -29 165 14 0 32 -35 76
-140z m-487 21 c-19 -180 -19 -211 -3 -211 17 0 22 25 32 145 11 124 17 139
52 117 16 -10 -8 -274 -27 -297 -24 -28 -110 -15 -123 19 -3 8 1 75 8 148 8
73 15 136 15 139 0 3 12 4 26 1 26 -5 26 -6 20 -61z m300 57 c15 -24 52 -263
44 -279 -8 -13 -118 -46 -125 -36 -3 2 -55 299 -55 309 0 7 40 14 97 16 17 1
35 -3 39 -10z"/>
<path d="M2290 3861 c0 -10 3 -33 6 -50 5 -25 9 -29 20 -20 15 12 18 46 8 73
-9 22 -34 20 -34 -3z"/>
<path d="M2068 3050 l-33 -32 27 6 c50 11 80 26 75 39 -7 23 -36 18 -69 -13z"/>
<path d="M2711 2982 c12 -35 24 -46 58 -57 34 -10 23 11 -27 53 l-42 34 11
-30z"/>
<path d="M2984 1966 c-4 -11 43 -85 112 -174 1 -2 10 0 18 5 13 7 5 23 -47 95
-34 48 -66 88 -70 88 -4 0 -10 -6 -13 -14z"/>
<path d="M2636 1822 c-8 -14 29 -205 41 -209 22 -8 23 16 6 116 -16 92 -30
120 -47 93z"/>
</g>
</svg>
